
<svg aria-hidden="true" style="position:absolute;width:0;height:0" xmlns="http://www.w3.org/2000/svg" overflow="hidden"><defs><symbol id="burgermenu" viewBox="0 0 32 32"><path d="M0 8.889V5.333h32v3.556H0zm0 8.889h32v-3.556H0v3.556zm0 8.889h32v-3.556H0v3.556z"/></symbol><symbol id="burgerclose" viewBox="0 0 32 32"><path d="M31.439 3.166L28.273 0 15.72 12.553 3.167 0 .001 3.166l12.553 12.553L.001 28.272l3.166 3.166L15.72 18.885l12.553 12.553 3.166-3.166-12.553-12.553L31.439 3.166z"/></symbol><symbol id="close" viewBox="0 0 32 32"><path d="M32 3.223L28.777 0 16 12.777 3.223 0 0 3.223 12.777 16 0 28.777 3.223 32 16 19.223 28.777 32 32 28.777 19.223 16 32 3.223z"/></symbol>
<symbol id="send" viewBox="0 0 24 24">
<path d="M22.963 2.269c0.043-0.151 0.050-0.314 0.015-0.476-0.024-0.113-0.068-0.224-0.131-0.325-0.064-0.102-0.145-0.19-0.238-0.262-0.117-0.090-0.249-0.15-0.386-0.181s-0.282-0.034-0.426-0.004c-0.042 0.009-0.085 0.021-0.126 0.035l-0.021 0.007-19.98 6.993c-0.252 0.088-0.467 0.276-0.584 0.538-0.224 0.505 0.003 1.096 0.508 1.32l8.649 3.844 3.844 8.649c0.108 0.243 0.313 0.443 0.583 0.538 0.521 0.182 1.092-0.092 1.274-0.614l6.993-19.979c0.010-0.027 0.019-0.054 0.027-0.082zM10.779 11.807l-6.068-2.696 13.483-4.72zM19.609 5.806l-4.72 13.483-2.696-6.068z"></path>
</symbol>
<symbol id="instagram" viewBox="0 0 20 20">
<path d="M17 1h-14c-1.1 0-2 0.9-2 2v14c0 1.101 0.9 2 2 2h14c1.1 0 2-0.899 2-2v-14c0-1.1-0.9-2-2-2zM9.984 15.523c3.059 0 5.538-2.481 5.538-5.539 0-0.338-0.043-0.664-0.103-0.984h1.581v7.216c0 0.382-0.31 0.69-0.693 0.69h-12.614c-0.383 0-0.693-0.308-0.693-0.69v-7.216h1.549c-0.061 0.32-0.104 0.646-0.104 0.984 0 3.059 2.481 5.539 5.539 5.539zM6.523 9.984c0-1.912 1.55-3.461 3.462-3.461s3.462 1.549 3.462 3.461-1.551 3.462-3.462 3.462c-1.913 0-3.462-1.55-3.462-3.462zM16.307 6h-1.615c-0.382 0-0.692-0.312-0.692-0.692v-1.617c0-0.382 0.31-0.691 0.691-0.691h1.615c0.384 0 0.694 0.309 0.694 0.691v1.616c0 0.381-0.31 0.693-0.693 0.693z"></path>
</symbol>
<symbol id="facebook" viewBox="0 0 32 32">
<path d="M19 6h5v-6h-5c-3.86 0-7 3.14-7 7v3h-4v6h4v16h6v-16h5l1-6h-6v-3c0-0.542 0.458-1 1-1z"></path>
</symbol>
<symbol id="twitter" viewBox="0 0 32 32">
<path d="M32 7.075c-1.175 0.525-2.444 0.875-3.769 1.031 1.356-0.813 2.394-2.1 2.887-3.631-1.269 0.75-2.675 1.3-4.169 1.594-1.2-1.275-2.906-2.069-4.794-2.069-3.625 0-6.563 2.938-6.563 6.563 0 0.512 0.056 1.012 0.169 1.494-5.456-0.275-10.294-2.888-13.531-6.862-0.563 0.969-0.887 2.1-0.887 3.3 0 2.275 1.156 4.287 2.919 5.463-1.075-0.031-2.087-0.331-2.975-0.819 0 0.025 0 0.056 0 0.081 0 3.181 2.263 5.838 5.269 6.437-0.55 0.15-1.131 0.231-1.731 0.231-0.425 0-0.831-0.044-1.237-0.119 0.838 2.606 3.263 4.506 6.131 4.563-2.25 1.762-5.075 2.813-8.156 2.813-0.531 0-1.050-0.031-1.569-0.094 2.913 1.869 6.362 2.95 10.069 2.95 12.075 0 18.681-10.006 18.681-18.681 0-0.287-0.006-0.569-0.019-0.85 1.281-0.919 2.394-2.075 3.275-3.394z"></path>
</symbol>
<symbol id="twitter2" viewBox="0 0 32 32">
<path d="M24 16h-12v4c0 2.209 1.791 4 4 4h8c2.209 0 4 1.791 4 4s-1.791 4-4 4h-8c-6.627 0-12-5.373-12-12v-16c0-2.209 1.791-4 4-4s4 1.791 4 4v4h12c2.209 0 4 1.791 4 4s-1.791 4-4 4z"></path>
</symbol>
<symbol id="pinterest" viewBox="0 0 32 32">
<path d="M16 2.138c-7.656 0-13.863 6.206-13.863 13.863 0 5.875 3.656 10.887 8.813 12.906-0.119-1.094-0.231-2.781 0.050-3.975 0.25-1.081 1.625-6.887 1.625-6.887s-0.412-0.831-0.412-2.056c0-1.925 1.119-3.369 2.506-3.369 1.181 0 1.756 0.887 1.756 1.95 0 1.188-0.756 2.969-1.15 4.613-0.331 1.381 0.688 2.506 2.050 2.506 2.462 0 4.356-2.6 4.356-6.35 0-3.319-2.387-5.638-5.787-5.638-3.944 0-6.256 2.956-6.256 6.019 0 1.194 0.456 2.469 1.031 3.163 0.113 0.137 0.131 0.256 0.094 0.4-0.106 0.438-0.338 1.381-0.387 1.575-0.063 0.256-0.2 0.306-0.463 0.188-1.731-0.806-2.813-3.337-2.813-5.369 0-4.375 3.175-8.387 9.156-8.387 4.806 0 8.544 3.425 8.544 8.006 0 4.775-3.012 8.625-7.194 8.625-1.406 0-2.725-0.731-3.175-1.594 0 0-0.694 2.644-0.863 3.294-0.313 1.206-1.156 2.712-1.725 3.631 1.3 0.4 2.675 0.619 4.106 0.619 7.656 0 13.863-6.206 13.863-13.863 0-7.662-6.206-13.869-13.863-13.869z"></path>
</symbol>
<symbol id="google" viewBox="0 0 20 20">
<path d="M1.989 5.589c0 1.494 0.499 2.572 1.482 3.205 0.806 0.52 1.74 0.598 2.226 0.598 0.118 0 0.213-0.006 0.279-0.010 0 0-0.154 1.004 0.59 1.996h-0.034c-1.289 0-5.493 0.269-5.493 3.727 0 3.516 3.861 3.695 4.636 3.695 0.061 0 0.097-0.002 0.097-0.002 0.008 0 0.063 0.002 0.158 0.002 0.497 0 1.782-0.062 2.975-0.643 1.548-0.75 2.333-2.059 2.333-3.885 0-1.764-1.196-2.814-2.069-3.582-0.533-0.469-0.994-0.873-0.994-1.266 0-0.4 0.337-0.701 0.762-1.082 0.689-0.615 1.339-1.492 1.339-3.15 0-1.457-0.189-2.436-1.354-3.057 0.121-0.062 0.551-0.107 0.763-0.137 0.631-0.086 1.554-0.184 1.554-0.699v-0.099h-4.599c-0.046 0.002-4.651 0.172-4.651 4.389zM9.413 14.602c0.088 1.406-1.115 2.443-2.922 2.574-1.835 0.135-3.345-0.691-3.433-2.096-0.043-0.676 0.254-1.336 0.835-1.863 0.589-0.533 1.398-0.863 2.278-0.928 0.104-0.006 0.207-0.012 0.31-0.012 1.699 0.001 2.849 0.999 2.932 2.325zM8.212 4.626c0.451 1.588-0.23 3.246-1.316 3.553-0.125 0.035-0.253 0.052-0.384 0.052-0.994 0-1.979-1.006-2.345-2.393-0.204-0.776-0.187-1.458 0.047-2.112 0.229-0.645 0.643-1.078 1.163-1.225 0.125-0.035 0.254-0.053 0.385-0.053 1.2 0 1.972 0.498 2.45 2.178zM16 8v-3h-2v3h-3v2h3v3h2v-3h3v-2h-3z"></path>
</symbol>
</defs></svg>